<svg width="41" height="41" viewBox="0 0 41 41" fill="none" xmlns="http://www.w3.org/2000/svg">
<path d="M25.4933 10.046H0.5V5.0258H25.4933V10.046ZM40.5 5.0258V10.046H35.5337V14.4185C35.5337 14.5984 35.4798 14.7424 35.3718 14.8504C35.2638 14.9583 35.1019 15.0123 34.886 15.0123H29.8657C29.4699 15.0123 29.2719 14.8144 29.2719 14.4185V0.653327C29.2719 0.221479 29.4699 0.0055542 29.8657 0.0055542H34.886C35.0659 0.0055542 35.2278 0.0595353 35.3718 0.167498C35.5157 0.27546 35.5697 0.437403 35.5337 0.653327V5.0258H40.5ZM0.5 30.019H14.2652V35.0393H0.5V30.019ZM24.2517 30.019H40.5V35.0393H24.2517V39.4118C24.2517 39.5917 24.1977 39.7356 24.0897 39.8436C23.9818 39.9516 23.8378 40.0235 23.6579 40.0595H18.6377C18.4577 40.0595 18.3138 39.9876 18.2058 39.8436C18.0978 39.6997 18.0259 39.5557 17.9899 39.4118V25.6466C17.9899 25.4666 18.0619 25.3227 18.2058 25.2147C18.3498 25.1068 18.4937 25.0528 18.6377 25.0528H23.6579C24.0538 25.0528 24.2517 25.2507 24.2517 25.6466V30.019ZM13.0236 17.5494H40.5V22.5157H13.0236V17.5494ZM2.98313 22.5157H0.5V17.5494H2.98313V13.123C2.98313 12.7271 3.19906 12.5292 3.6309 12.5292H8.65115C9.04701 12.5292 9.24494 12.7271 9.24494 13.123V26.8881C9.24494 27.32 9.04701 27.5359 8.65115 27.5359H3.6309C3.19906 27.5359 2.98313 27.32 2.98313 26.8881V22.5157Z" fill="#F8F8F8" fill-opacity="0.25"/>
</svg>
