<svg width="21" height="21" viewBox="0 0 21 21" fill="none" xmlns="http://www.w3.org/2000/svg">
<path fill-rule="evenodd" clip-rule="evenodd" d="M19.9319 2.9436C20.052 2.82366 20.1473 2.68124 20.2123 2.52447C20.2774 2.3677 20.3109 2.19965 20.311 2.02992C20.3111 1.86019 20.2778 1.69211 20.213 1.53526C20.1481 1.37841 20.053 1.23587 19.933 1.11578C19.8131 0.99569 19.6707 0.9004 19.5139 0.835352C19.3571 0.770303 19.1891 0.736769 19.0194 0.736665C18.8496 0.73656 18.6815 0.769888 18.5247 0.834744C18.3678 0.8996 18.2253 0.994714 18.1052 1.11466L10.3109 8.90901L2.51876 1.11466C2.27623 0.872124 1.94729 0.73587 1.60429 0.73587C1.2613 0.73587 0.932354 0.872124 0.689821 1.11466C0.447289 1.35719 0.311035 1.68613 0.311035 2.02913C0.311035 2.37212 0.447289 2.70107 0.689821 2.9436L8.48417 10.7357L0.689821 18.5278C0.569731 18.6479 0.474471 18.7905 0.409478 18.9474C0.344486 19.1043 0.311035 19.2724 0.311035 19.4423C0.311035 19.6121 0.344486 19.7803 0.409478 19.9372C0.474471 20.0941 0.569731 20.2367 0.689821 20.3568C0.932354 20.5993 1.2613 20.7355 1.60429 20.7355C1.77413 20.7355 1.9423 20.7021 2.0992 20.6371C2.25611 20.5721 2.39867 20.4768 2.51876 20.3568L10.3109 12.5624L18.1052 20.3568C18.3478 20.599 18.6766 20.735 19.0194 20.7347C19.3621 20.7345 19.6908 20.5982 19.933 20.3556C20.1753 20.1131 20.3112 19.7843 20.311 19.4415C20.3108 19.0987 20.1744 18.77 19.9319 18.5278L12.1376 10.7357L19.9319 2.9436Z" fill="white" fill-opacity="0.5"/>
</svg>
