<svg width="46" height="30" viewBox="0 0 46 30" fill="none" xmlns="http://www.w3.org/2000/svg">
<path fill-rule="evenodd" clip-rule="evenodd" d="M0.5 6.59503C0.5 5.10319 1.09263 3.67245 2.14752 2.61756C3.20242 1.56266 4.63316 0.970032 6.125 0.970032H27.2188C28.5831 0.969871 29.901 1.46557 30.927 2.36483C31.953 3.26408 32.6172 4.50559 32.7959 5.85816L41.5428 1.97128C41.971 1.78051 42.44 1.69977 42.9073 1.7364C43.3745 1.77302 43.8253 1.92585 44.2185 2.18099C44.6116 2.43613 44.9348 2.78549 45.1586 3.19732C45.3825 3.60914 45.4998 4.07038 45.5 4.53909V25.526C45.4996 25.9943 45.3822 26.4552 45.1586 26.8666C44.9349 27.2781 44.612 27.6273 44.2192 27.8823C43.8264 28.1374 43.3761 28.2903 42.9092 28.3273C42.4424 28.3642 41.9736 28.2839 41.5456 28.0938L32.7959 24.2069C32.6172 25.5595 31.953 26.801 30.927 27.7002C29.901 28.5995 28.5831 29.0952 27.2188 29.095H6.125C4.63316 29.095 3.20242 28.5024 2.14752 27.4475C1.09263 26.3926 0.5 24.9619 0.5 23.47V6.59503ZM32.8438 21.1497L42.6875 25.526V4.53909L32.8438 8.91534V21.1497ZM6.125 3.78253C5.37908 3.78253 4.66371 4.07885 4.13626 4.60629C3.60882 5.13374 3.3125 5.84911 3.3125 6.59503V23.47C3.3125 24.216 3.60882 24.9313 4.13626 25.4588C4.66371 25.9862 5.37908 26.2825 6.125 26.2825H27.2188C27.9647 26.2825 28.68 25.9862 29.2075 25.4588C29.7349 24.9313 30.0312 24.216 30.0312 23.47V6.59503C30.0312 5.84911 29.7349 5.13374 29.2075 4.60629C28.68 4.07885 27.9647 3.78253 27.2188 3.78253H6.125Z" fill="white" fill-opacity="0.25"/>
</svg>
