<svg width="36" height="41" viewBox="0 0 36 41" fill="none" xmlns="http://www.w3.org/2000/svg">
<path d="M5.33335 40.03H2.66669C2.13625 40.03 1.62755 39.8193 1.25247 39.4442C0.877401 39.0692 0.666687 38.5605 0.666687 38.03V26.03C0.666687 25.4996 0.877401 24.9909 1.25247 24.6158C1.62755 24.2407 2.13625 24.03 2.66669 24.03H5.33335C5.86379 24.03 6.37249 24.2407 6.74757 24.6158C7.12264 24.9909 7.33335 25.4996 7.33335 26.03V38.03C7.33335 38.5605 7.12264 39.0692 6.74757 39.4442C6.37249 39.8193 5.86379 40.03 5.33335 40.03Z" fill="white" fill-opacity="0.25"/>
<path d="M24 40.03H21.3334C20.8029 40.03 20.2942 39.8193 19.9192 39.4442C19.5441 39.0692 19.3334 38.5605 19.3334 38.03V18.03C19.3334 17.4996 19.5441 16.9909 19.9192 16.6158C20.2942 16.2407 20.8029 16.03 21.3334 16.03H24C24.5305 16.03 25.0392 16.2407 25.4143 16.6158C25.7893 16.9909 26 17.4996 26 18.03V38.03C26 38.5605 25.7893 39.0692 25.4143 39.4442C25.0392 39.8193 24.5305 40.03 24 40.03Z" fill="white" fill-opacity="0.25"/>
<path d="M33.3334 40.03H30.6667C30.1363 40.03 29.6275 39.8193 29.2525 39.4442C28.8774 39.0692 28.6667 38.5605 28.6667 38.03V8.6967C28.6667 8.16626 28.8774 7.65756 29.2525 7.28248C29.6275 6.90741 30.1363 6.6967 30.6667 6.6967H33.3334C33.8638 6.6967 34.3725 6.90741 34.7476 7.28248C35.1226 7.65756 35.3334 8.16626 35.3334 8.6967V38.03C35.3334 38.5605 35.1226 39.0692 34.7476 39.4442C34.3725 39.8193 33.8638 40.03 33.3334 40.03Z" fill="white" fill-opacity="0.25"/>
<path d="M14.6667 40.03H12C11.4696 40.03 10.9609 39.8193 10.5858 39.4442C10.2107 39.0692 10 38.5605 10 38.03V2.03003C10 1.4996 10.2107 0.990889 10.5858 0.615816C10.9609 0.240743 11.4696 0.0300293 12 0.0300293H14.6667C15.1971 0.0300293 15.7058 0.240743 16.0809 0.615816C16.456 0.990889 16.6667 1.4996 16.6667 2.03003V38.03C16.6667 38.5605 16.456 39.0692 16.0809 39.4442C15.7058 39.8193 15.1971 40.03 14.6667 40.03Z" fill="white" fill-opacity="0.25"/>
</svg>
