<svg width="36" height="41" viewBox="0 0 36 41" fill="none" xmlns="http://www.w3.org/2000/svg">
<path d="M5.33335 40.0325H2.66669C2.13625 40.0325 1.62755 39.8218 1.25247 39.4467C0.877401 39.0717 0.666687 38.563 0.666687 38.0325V26.0325C0.666687 25.5021 0.877401 24.9934 1.25247 24.6183C1.62755 24.2432 2.13625 24.0325 2.66669 24.0325H5.33335C5.86379 24.0325 6.37249 24.2432 6.74757 24.6183C7.12264 24.9934 7.33335 25.5021 7.33335 26.0325V38.0325C7.33335 38.563 7.12264 39.0717 6.74757 39.4467C6.37249 39.8218 5.86379 40.0325 5.33335 40.0325Z" fill="white"/>
<path d="M24 40.0325H21.3334C20.8029 40.0325 20.2942 39.8218 19.9192 39.4467C19.5441 39.0717 19.3334 38.563 19.3334 38.0325V18.0325C19.3334 17.5021 19.5441 16.9934 19.9192 16.6183C20.2942 16.2432 20.8029 16.0325 21.3334 16.0325H24C24.5305 16.0325 25.0392 16.2432 25.4143 16.6183C25.7893 16.9934 26 17.5021 26 18.0325V38.0325C26 38.563 25.7893 39.0717 25.4143 39.4467C25.0392 39.8218 24.5305 40.0325 24 40.0325Z" fill="white"/>
<path d="M33.3334 40.0325H30.6667C30.1363 40.0325 29.6275 39.8218 29.2525 39.4467C28.8774 39.0717 28.6667 38.563 28.6667 38.0325V8.6992C28.6667 8.16877 28.8774 7.66006 29.2525 7.28499C29.6275 6.90991 30.1363 6.6992 30.6667 6.6992H33.3334C33.8638 6.6992 34.3725 6.90991 34.7476 7.28499C35.1226 7.66006 35.3334 8.16877 35.3334 8.6992V38.0325C35.3334 38.563 35.1226 39.0717 34.7476 39.4467C34.3725 39.8218 33.8638 40.0325 33.3334 40.0325Z" fill="white"/>
<path d="M14.6667 40.0325H12C11.4696 40.0325 10.9609 39.8218 10.5858 39.4467C10.2107 39.0717 10 38.563 10 38.0325V2.03253C10 1.5021 10.2107 0.993391 10.5858 0.618318C10.9609 0.243245 11.4696 0.0325317 12 0.0325317H14.6667C15.1971 0.0325317 15.7058 0.243245 16.0809 0.618318C16.456 0.993391 16.6667 1.5021 16.6667 2.03253V38.0325C16.6667 38.563 16.456 39.0717 16.0809 39.4467C15.7058 39.8218 15.1971 40.0325 14.6667 40.0325Z" fill="white"/>
</svg>